<?xml version="1.0" encoding="UTF-8"?>
<svg id="Calque_1" xmlns="http://www.w3.org/2000/svg" viewBox="0 0 1500 1500">
  <g id="Logo_-_Noir">
    <polygon points="494.9 691.15 494.9 727.85 286.54 807.79 286.54 771.09 494.9 691.15"/>
    <polygon points="494.9 742.02 494.9 778.72 366 828.07 366 791.87 494.9 742.02"/>
    <polygon points="415.44 672.68 415.15 709.17 286.54 758.79 286.54 722.08 415.44 672.68"/>
  </g>
  <g>
    <path d="M624.44,704.15h-33.46s.03,93.91.03,93.91h13.06s0-31.99,0-31.99h20.39c17.46-.01,30.08-11.75,30.07-30.24v-1.47c0-18.5-12.63-30.22-30.09-30.22ZM641.17,735.39c0,11.3-7.03,18.93-18.19,18.93h-18.93s-.01-38.44-.01-38.44h18.93c11.15-.01,18.2,7.62,18.2,18.93v.59Z"/>
    <path d="M737.78,786.28l-46.81.02-.02-82.17h-13.06s.02,93.9.02,93.9h59.87s0-11.75,0-11.75Z"/>
    <path d="M792.23,702.63c-24.79,0-42.69,17.77-42.68,46.52v3.83c0,28.75,17.92,46.5,42.71,46.5,24.79,0,42.69-17.77,42.69-46.52v-3.83c-.01-28.75-17.92-46.5-42.72-46.5ZM821.73,752.36c.01,21.56-11.73,35.07-29.63,35.07-17.6,0-29.49-13.49-29.5-35.06v-2.65c0-21.56,11.87-35.07,29.48-35.07,17.9,0,29.64,13.49,29.65,35.06v2.65Z"/>
    <path d="M931.08,704.05h-13.06s.02,58.98.02,58.98c0,17.03-8.94,23.92-22.88,23.93-13.79,0-22.88-6.89-22.89-23.91l-.02-58.98h-13.06s.02,59.71.02,59.71c0,24.22,14.82,35.66,36.1,35.65,20.98,0,35.8-11.46,35.79-35.67l-.02-59.71Z"/>
    <path d="M1020.65,715.76v-11.73s-74.11.02-74.11.02v11.73s30.52-.01,30.52-.01l.02,82.17h13.06s-.02-82.18-.02-82.18h30.52Z"/>
    <path d="M1116.36,749.04c0-28.75-17.92-46.5-42.71-46.5-24.79,0-42.69,17.77-42.68,46.52v3.83c0,28.76,17.92,46.5,42.71,46.5,24.79,0,42.69-17.77,42.69-46.52v-3.83ZM1103.15,752.28c0,21.56-11.73,35.07-29.63,35.07-17.6,0-29.49-13.49-29.5-35.06v-2.65c0-21.56,11.87-35.07,29.48-35.07,17.9,0,29.64,13.49,29.65,35.06v2.65Z"/>
    <path d="M1214,797.88l-.03-93.9h-12.76s.02,72.49.02,72.49l-44.63-72.47h-14.23s.03,93.9.03,93.9h12.76l-.02-72.48,44.63,72.47h14.23Z"/>
  </g>
</svg>